<?xml version="1.0" encoding="utf-8"?>
<!-- Generator: Adobe Illustrator 24.0.1, SVG Export Plug-In . SVG Version: 6.00 Build 0)  -->
<svg version="1.1" id="Camada_1" xmlns="http://www.w3.org/2000/svg" xmlns:xlink="http://www.w3.org/1999/xlink" x="0px" y="0px"
	 viewBox="0 0 640 480" style="enable-background:new 0 0 640 480;" xml:space="preserve">
<style type="text/css">
	.st0{fill:#020201;}
	.st1{fill:#020201;stroke:#FFFFFF;stroke-width:2.3;stroke-miterlimit:10;}
	.st2{fill:#FFFFFF;}
</style>
<g>
	<path class="st0" d="M218,114.96v210.6h-51.3l-85.8-129.9v129.9H29.6v-210.6h51.3l85.8,130.5v-130.5H218z"/>
</g>
<g>
	<path class="st0" d="M264.15,325.42c-17.16,0-30.14-11.51-30.14-30.03s13.29-30.03,30.35-30.03c17.16,0,30.35,11.51,30.35,30.03
		S281.31,325.42,264.15,325.42z M264.15,309.93c6.38,0,12.35-4.71,12.35-14.55c0-9.94-5.86-14.55-12.14-14.55
		c-6.49,0-12.14,4.6-12.14,14.55C252.22,305.22,257.66,309.93,264.15,309.93z"/>
	<path class="st0" d="M307.05,281.05h-7.12v-14.86h7.12v-14.23h17.89v14.23h11.72v14.86h-11.72v23.44c0,3.45,1.46,4.92,5.44,4.92
		h6.38v15.17h-9.1c-12.14,0-20.61-5.13-20.61-20.3V281.05z"/>
	<path class="st0" d="M368.9,265.35c8.69,0,14.86,3.98,18,9.1v-8.27h17.89v58.39H386.9v-8.27c-3.24,5.13-9.42,9.1-18.1,9.1
		c-14.23,0-25.64-11.72-25.64-30.14C343.16,276.87,354.56,265.35,368.9,265.35z M374.13,280.95c-6.7,0-12.77,5.02-12.77,14.34
		c0,9.31,6.07,14.54,12.77,14.54c6.8,0,12.77-5.13,12.77-14.44S380.93,280.95,374.13,280.95z"/>
	<path class="st0" d="M420.59,281.05h-7.12v-14.86h7.12v-14.23h17.89v14.23h11.72v14.86h-11.72v23.44c0,3.45,1.46,4.92,5.44,4.92
		h6.38v15.17h-9.1c-12.14,0-20.61-5.13-20.61-20.3V281.05z"/>
	<path class="st0" d="M458.58,250.5c0-5.44,4.29-9.73,10.67-9.73c6.28,0,10.57,4.29,10.57,9.73c0,5.34-4.29,9.63-10.57,9.63
		C462.87,260.12,458.58,255.83,458.58,250.5z M460.25,266.19h17.89v58.39h-17.89V266.19z"/>
	<path class="st0" d="M517.7,325.42c-17.16,0-30.14-11.51-30.14-30.03s13.29-30.03,30.35-30.03c17.16,0,30.35,11.51,30.35,30.03
		S534.87,325.42,517.7,325.42z M517.7,309.93c6.38,0,12.35-4.71,12.35-14.55c0-9.94-5.86-14.55-12.14-14.55
		c-6.49,0-12.14,4.6-12.14,14.55C505.78,305.22,511.22,309.93,517.7,309.93z"/>
	<path class="st0" d="M598.07,292.88c0-7.95-4.4-12.35-11.2-12.35s-11.2,4.4-11.2,12.35v31.71h-17.89v-58.39h17.89v7.74
		c3.56-4.92,9.84-8.37,17.69-8.37c13.5,0,22.5,9.21,22.5,24.9v34.12h-17.79V292.88z"/>
</g>
<line class="st1" x1="165.5" y1="230" x2="165.5" y2="326"/>
<path class="st2" d="M193.49,115.84L163.77,140c0,0-3.98-15.4,0-24.16c8.88-19.33,46.26-19.33,55.14,0c3.98,8.76,0,24.16,0,24.16
	L193.49,115.84z"/>
<g>
	<path class="st0" d="M217.55,328.36h-50.5v15.3c22.04,22.03,42.85,9.18,50.5,0V328.36z"/>
</g>
</svg>
